<svg width="52" height="52" viewBox="0 0 52 52" fill="none" xmlns="http://www.w3.org/2000/svg">
<circle cx="26" cy="26" r="26" fill="#323232"/>
<g clip-path="url(#clip0)">
<path d="M25.9871 14.0041C27.6678 14.0041 29.3484 13.9888 31.029 14.0092C32.2666 14.0244 33.4201 14.3758 34.4769 15.0175C36.0735 15.9852 37.1506 17.3679 37.6981 19.1529C37.9273 19.9016 38.0011 20.668 37.9986 21.4498C37.9909 23.9275 37.9935 26.4077 37.9935 28.8853C37.9935 29.5423 38.0062 30.2018 37.9935 30.8588C37.9553 32.9672 37.1481 34.737 35.5948 36.1554C34.5507 37.1077 33.3157 37.6858 31.9203 37.9098C31.5587 37.9684 31.1869 37.9939 30.8177 37.9939C27.6474 37.999 24.4771 37.9913 21.3068 37.9964C19.3104 38.0015 17.5891 37.3191 16.1605 35.9313C15.0579 34.8618 14.3678 33.558 14.1107 32.0404C14.0343 31.5871 14.0037 31.1211 14.0012 30.6602C13.991 28.1392 13.9961 25.6183 13.9961 23.0973C13.9961 22.3792 13.9859 21.6637 14.0037 20.9456C14.0292 19.815 14.3271 18.7557 14.8695 17.7651C15.473 16.66 16.3108 15.7662 17.3777 15.0965C18.521 14.3784 19.7688 14.0066 21.1209 13.999C22.743 13.9913 24.3625 13.9964 25.9846 13.9964C25.9871 14.0015 25.9871 14.0041 25.9871 14.0041ZM25.9999 16.2551C24.4338 16.2551 22.8678 16.2551 21.3017 16.2551C20.8026 16.2551 20.3137 16.3137 19.8324 16.4537C17.7317 17.0572 16.2624 19.0001 16.2573 21.1901C16.2522 23.0108 16.2496 24.8314 16.2496 26.6496C16.2496 27.7318 16.2496 28.814 16.2573 29.8963C16.2598 30.3954 16.2522 30.8996 16.3031 31.3961C16.4228 32.5165 16.9041 33.4791 17.7011 34.2761C18.6611 35.2336 19.8274 35.7327 21.1821 35.7378C24.4313 35.7454 27.6805 35.7403 30.9323 35.7327C31.7751 35.7301 32.5696 35.5009 33.2852 35.0579C34.8843 34.0698 35.7246 32.6311 35.7323 30.7442C35.7476 27.5714 35.7374 24.396 35.7374 21.2232C35.7374 20.0671 35.386 19.0256 34.6577 18.1293C33.6442 16.879 32.3175 16.2602 30.7107 16.2551C29.1396 16.25 27.571 16.2551 25.9999 16.2551Z" fill="#E5E5E5"/>
<path d="M20.1905 25.9962C20.1803 22.7189 22.8973 20.0554 26.1745 20.0885C29.3856 20.1216 32.0338 22.7801 32.0084 26.0344C31.9829 29.3676 29.2914 31.9141 26.1007 31.9141C22.8285 31.909 20.1854 29.2581 20.1905 25.9962ZM26.0956 29.7827C28.1862 29.7852 29.8821 28.0893 29.8821 25.9987C29.8796 23.9158 28.1837 22.2097 26.1083 22.2147C24.005 22.2173 22.3345 23.903 22.3167 25.958C22.2963 28.0817 23.9897 29.7802 26.0956 29.7827Z" fill="#E5E5E5"/>
<path d="M32.3547 21.0969C31.5704 21.0969 30.9389 20.4654 30.9414 19.6811C30.944 18.9069 31.578 18.2831 32.3623 18.2856C33.1237 18.2856 33.7578 18.9171 33.7629 19.676C33.7679 20.4628 33.139 21.0969 32.3547 21.0969Z" fill="#E5E5E5"/>
</g>
<defs>
<clipPath id="clip0">
<rect width="24" height="24" fill="white" transform="translate(14 14)"/>
</clipPath>
</defs>
</svg>
